<svg xmlns="http://www.w3.org/2000/svg" width="1000" height="1016" viewBox="0 0 1000 1016" font-family="Inter, DejaVu Sans, sans-serif">
  <defs>
    <marker id="arw" viewBox="0 0 10 10" refX="9" refY="5" markerWidth="8" markerHeight="8" orient="auto-start-reverse">
      <path d="M1 1L9 5L1 9Z" fill="#000000"/>
    </marker>
  </defs>
  <rect width="1000" height="1016" fill="#ffffff"/>
  <text x="40" y="34" font-size="15" font-family="Inter, DejaVu Sans, sans-serif" text-anchor="start" fill="#000000" font-weight="bold">PHY  -  DFI interface (all ports, one module)</text>
  <text x="40" y="54" font-size="9" font-family="Inter, DejaVu Sans, sans-serif" text-anchor="start" fill="#777777">arrow: -&gt; = MC-&gt;PHY (drive), &lt;- = PHY-&gt;MC.  _p0 = phase 0 (rest _pN copies).  widths parametric.</text>
  <rect x="360" y="96" width="250" height="840" fill="#e3f2f1" stroke="#000000" stroke-width="1.8"/>
  <text x="485.0" y="88" font-size="13" font-family="JetBrains Mono, DejaVu Sans Mono, monospace" text-anchor="middle" fill="#000000" font-weight="bold">PHY</text>
  <line x1="365" y1="106" x2="377" y2="106" stroke="#2a8f86" stroke-width="1.0" marker-end="url(#arw)"/>
  <text x="382" y="110" font-size="8" font-family="JetBrains Mono, DejaVu Sans Mono, monospace" text-anchor="start" fill="#000000">dfi_address_p0</text>
  <text x="604" y="110" font-size="7" font-family="JetBrains Mono, DejaVu Sans Mono, monospace" text-anchor="end" fill="#777777">14</text>
  <line x1="365" y1="126" x2="377" y2="126" stroke="#2a8f86" stroke-width="1.0" marker-end="url(#arw)"/>
  <text x="382" y="130" font-size="8" font-family="JetBrains Mono, DejaVu Sans Mono, monospace" text-anchor="start" fill="#000000">dfi_cs_p0</text>
  <text x="604" y="130" font-size="7" font-family="JetBrains Mono, DejaVu Sans Mono, monospace" text-anchor="end" fill="#777777">N_RANKS</text>
  <line x1="360" y1="116" x2="610" y2="116" stroke="#aaaaaa" stroke-width="1.0"/>
  <line x1="365" y1="146" x2="377" y2="146" stroke="#2a8f86" stroke-width="1.0" marker-end="url(#arw)"/>
  <text x="382" y="150" font-size="8" font-family="JetBrains Mono, DejaVu Sans Mono, monospace" text-anchor="start" fill="#000000">dfi_cke_p0</text>
  <text x="604" y="150" font-size="7" font-family="JetBrains Mono, DejaVu Sans Mono, monospace" text-anchor="end" fill="#777777">N_RANKS</text>
  <line x1="360" y1="136" x2="610" y2="136" stroke="#aaaaaa" stroke-width="1.0"/>
  <line x1="365" y1="166" x2="377" y2="166" stroke="#2a8f86" stroke-width="1.0" marker-end="url(#arw)"/>
  <text x="382" y="170" font-size="8" font-family="JetBrains Mono, DejaVu Sans Mono, monospace" text-anchor="start" fill="#000000">dfi_odt_p0</text>
  <text x="604" y="170" font-size="7" font-family="JetBrains Mono, DejaVu Sans Mono, monospace" text-anchor="end" fill="#777777">N_RANKS</text>
  <line x1="360" y1="156" x2="610" y2="156" stroke="#aaaaaa" stroke-width="1.0"/>
  <line x1="365" y1="186" x2="377" y2="186" stroke="#2a8f86" stroke-width="1.0" marker-end="url(#arw)"/>
  <text x="382" y="190" font-size="8" font-family="JetBrains Mono, DejaVu Sans Mono, monospace" text-anchor="start" fill="#000000">dfi_reset_n_p0</text>
  <text x="604" y="190" font-size="7" font-family="JetBrains Mono, DejaVu Sans Mono, monospace" text-anchor="end" fill="#777777">1</text>
  <line x1="360" y1="176" x2="610" y2="176" stroke="#aaaaaa" stroke-width="1.0"/>
  <line x1="365" y1="206" x2="377" y2="206" stroke="#2a8f86" stroke-width="1.0" marker-end="url(#arw)"/>
  <text x="382" y="210" font-size="8" font-family="JetBrains Mono, DejaVu Sans Mono, monospace" text-anchor="start" fill="#000000">dfi_2n_mode_p0</text>
  <text x="604" y="210" font-size="7" font-family="JetBrains Mono, DejaVu Sans Mono, monospace" text-anchor="end" fill="#777777">1</text>
  <line x1="360" y1="196" x2="610" y2="196" stroke="#aaaaaa" stroke-width="1.0"/>
  <line x1="365" y1="226" x2="377" y2="226" stroke="#2a8f86" stroke-width="1.0" marker-end="url(#arw)"/>
  <text x="382" y="230" font-size="8" font-family="JetBrains Mono, DejaVu Sans Mono, monospace" text-anchor="start" fill="#000000">dfi_cs_geardown_p0</text>
  <text x="604" y="230" font-size="7" font-family="JetBrains Mono, DejaVu Sans Mono, monospace" text-anchor="end" fill="#777777">1</text>
  <line x1="360" y1="216" x2="610" y2="216" stroke="#aaaaaa" stroke-width="1.0"/>
  <line x1="365" y1="246" x2="377" y2="246" stroke="#2a8f86" stroke-width="1.0" marker-end="url(#arw)"/>
  <text x="382" y="250" font-size="8" font-family="JetBrains Mono, DejaVu Sans Mono, monospace" text-anchor="start" fill="#000000">dfi_dram_clk_disable_p0</text>
  <text x="604" y="250" font-size="7" font-family="JetBrains Mono, DejaVu Sans Mono, monospace" text-anchor="end" fill="#777777">per-clk</text>
  <line x1="360" y1="236" x2="610" y2="236" stroke="#aaaaaa" stroke-width="1.0"/>
  <line x1="365" y1="266" x2="377" y2="266" stroke="#2a8f86" stroke-width="1.0" marker-end="url(#arw)"/>
  <text x="382" y="270" font-size="8" font-family="JetBrains Mono, DejaVu Sans Mono, monospace" text-anchor="start" fill="#000000">dfi_parity_in_p0</text>
  <text x="604" y="270" font-size="7" font-family="JetBrains Mono, DejaVu Sans Mono, monospace" text-anchor="end" fill="#777777">1</text>
  <line x1="360" y1="256" x2="610" y2="256" stroke="#aaaaaa" stroke-width="1.0"/>
  <line x1="377" y1="286" x2="365" y2="286" stroke="#b0602a" stroke-width="1.0" marker-end="url(#arw)"/>
  <text x="382" y="290" font-size="8" font-family="JetBrains Mono, DejaVu Sans Mono, monospace" text-anchor="start" fill="#000000">dfi_alert_n_p0</text>
  <text x="604" y="290" font-size="7" font-family="JetBrains Mono, DejaVu Sans Mono, monospace" text-anchor="end" fill="#777777">1</text>
  <line x1="360" y1="276" x2="610" y2="276" stroke="#aaaaaa" stroke-width="1.0"/>
  <line x1="365" y1="306" x2="377" y2="306" stroke="#2a8f86" stroke-width="1.0" marker-end="url(#arw)"/>
  <text x="382" y="310" font-size="8" font-family="JetBrains Mono, DejaVu Sans Mono, monospace" text-anchor="start" fill="#000000">dfi_wrdata_p0</text>
  <text x="604" y="310" font-size="7" font-family="JetBrains Mono, DejaVu Sans Mono, monospace" text-anchor="end" fill="#777777">2*DQ</text>
  <line x1="360" y1="296" x2="610" y2="296" stroke="#aaaaaa" stroke-width="1.0"/>
  <line x1="365" y1="326" x2="377" y2="326" stroke="#2a8f86" stroke-width="1.0" marker-end="url(#arw)"/>
  <text x="382" y="330" font-size="8" font-family="JetBrains Mono, DejaVu Sans Mono, monospace" text-anchor="start" fill="#000000">dfi_wrdata_en_p0</text>
  <text x="604" y="330" font-size="7" font-family="JetBrains Mono, DejaVu Sans Mono, monospace" text-anchor="end" fill="#777777">slices</text>
  <line x1="360" y1="316" x2="610" y2="316" stroke="#aaaaaa" stroke-width="1.0"/>
  <line x1="365" y1="346" x2="377" y2="346" stroke="#2a8f86" stroke-width="1.0" marker-end="url(#arw)"/>
  <text x="382" y="350" font-size="8" font-family="JetBrains Mono, DejaVu Sans Mono, monospace" text-anchor="start" fill="#000000">dfi_wrdata_mask_p0</text>
  <text x="604" y="350" font-size="7" font-family="JetBrains Mono, DejaVu Sans Mono, monospace" text-anchor="end" fill="#777777">2*DQ/8</text>
  <line x1="360" y1="336" x2="610" y2="336" stroke="#aaaaaa" stroke-width="1.0"/>
  <line x1="365" y1="366" x2="377" y2="366" stroke="#2a8f86" stroke-width="1.0" marker-end="url(#arw)"/>
  <text x="382" y="370" font-size="8" font-family="JetBrains Mono, DejaVu Sans Mono, monospace" text-anchor="start" fill="#000000">dfi_wrdata_cs_p0</text>
  <text x="604" y="370" font-size="7" font-family="JetBrains Mono, DejaVu Sans Mono, monospace" text-anchor="end" fill="#777777">PHY_RANK</text>
  <line x1="360" y1="356" x2="610" y2="356" stroke="#aaaaaa" stroke-width="1.0"/>
  <line x1="365" y1="386" x2="377" y2="386" stroke="#2a8f86" stroke-width="1.0" marker-end="url(#arw)"/>
  <text x="382" y="390" font-size="8" font-family="JetBrains Mono, DejaVu Sans Mono, monospace" text-anchor="start" fill="#000000">dfi_wrdata_crc_p0</text>
  <text x="604" y="390" font-size="7" font-family="JetBrains Mono, DejaVu Sans Mono, monospace" text-anchor="end" fill="#777777">DATA/8</text>
  <line x1="360" y1="376" x2="610" y2="376" stroke="#aaaaaa" stroke-width="1.0"/>
  <line x1="365" y1="406" x2="377" y2="406" stroke="#2a8f86" stroke-width="1.0" marker-end="url(#arw)"/>
  <text x="382" y="410" font-size="8" font-family="JetBrains Mono, DejaVu Sans Mono, monospace" text-anchor="start" fill="#000000">dfi_wrdata_ecc_p0</text>
  <text x="604" y="410" font-size="7" font-family="JetBrains Mono, DejaVu Sans Mono, monospace" text-anchor="end" fill="#777777">opt</text>
  <line x1="360" y1="396" x2="610" y2="396" stroke="#aaaaaa" stroke-width="1.0"/>
  <line x1="377" y1="426" x2="365" y2="426" stroke="#b0602a" stroke-width="1.0" marker-end="url(#arw)"/>
  <text x="382" y="430" font-size="8" font-family="JetBrains Mono, DejaVu Sans Mono, monospace" text-anchor="start" fill="#000000">dfi_rddata_w0</text>
  <text x="604" y="430" font-size="7" font-family="JetBrains Mono, DejaVu Sans Mono, monospace" text-anchor="end" fill="#777777">2*DQ</text>
  <line x1="360" y1="416" x2="610" y2="416" stroke="#aaaaaa" stroke-width="1.0"/>
  <line x1="365" y1="446" x2="377" y2="446" stroke="#2a8f86" stroke-width="1.0" marker-end="url(#arw)"/>
  <text x="382" y="450" font-size="8" font-family="JetBrains Mono, DejaVu Sans Mono, monospace" text-anchor="start" fill="#000000">dfi_rddata_en_p0</text>
  <text x="604" y="450" font-size="7" font-family="JetBrains Mono, DejaVu Sans Mono, monospace" text-anchor="end" fill="#777777">slices</text>
  <line x1="360" y1="436" x2="610" y2="436" stroke="#aaaaaa" stroke-width="1.0"/>
  <line x1="377" y1="466" x2="365" y2="466" stroke="#b0602a" stroke-width="1.0" marker-end="url(#arw)"/>
  <text x="382" y="470" font-size="8" font-family="JetBrains Mono, DejaVu Sans Mono, monospace" text-anchor="start" fill="#000000">dfi_rddata_valid_w0</text>
  <text x="604" y="470" font-size="7" font-family="JetBrains Mono, DejaVu Sans Mono, monospace" text-anchor="end" fill="#777777">slices</text>
  <line x1="360" y1="456" x2="610" y2="456" stroke="#aaaaaa" stroke-width="1.0"/>
  <line x1="365" y1="486" x2="377" y2="486" stroke="#2a8f86" stroke-width="1.0" marker-end="url(#arw)"/>
  <text x="382" y="490" font-size="8" font-family="JetBrains Mono, DejaVu Sans Mono, monospace" text-anchor="start" fill="#000000">dfi_rddata_cs_p0</text>
  <text x="604" y="490" font-size="7" font-family="JetBrains Mono, DejaVu Sans Mono, monospace" text-anchor="end" fill="#777777">PHY_RANK</text>
  <line x1="360" y1="476" x2="610" y2="476" stroke="#aaaaaa" stroke-width="1.0"/>
  <line x1="377" y1="506" x2="365" y2="506" stroke="#b0602a" stroke-width="1.0" marker-end="url(#arw)"/>
  <text x="382" y="510" font-size="8" font-family="JetBrains Mono, DejaVu Sans Mono, monospace" text-anchor="start" fill="#000000">dfi_rddata_dnv_w0</text>
  <text x="604" y="510" font-size="7" font-family="JetBrains Mono, DejaVu Sans Mono, monospace" text-anchor="end" fill="#777777">slices</text>
  <line x1="360" y1="496" x2="610" y2="496" stroke="#aaaaaa" stroke-width="1.0"/>
  <line x1="377" y1="526" x2="365" y2="526" stroke="#b0602a" stroke-width="1.0" marker-end="url(#arw)"/>
  <text x="382" y="530" font-size="8" font-family="JetBrains Mono, DejaVu Sans Mono, monospace" text-anchor="start" fill="#000000">dfi_rddata_dbi_w0</text>
  <text x="604" y="530" font-size="7" font-family="JetBrains Mono, DejaVu Sans Mono, monospace" text-anchor="end" fill="#777777">DATA/8</text>
  <line x1="360" y1="516" x2="610" y2="516" stroke="#aaaaaa" stroke-width="1.0"/>
  <line x1="377" y1="546" x2="365" y2="546" stroke="#b0602a" stroke-width="1.0" marker-end="url(#arw)"/>
  <text x="382" y="550" font-size="8" font-family="JetBrains Mono, DejaVu Sans Mono, monospace" text-anchor="start" fill="#000000">dfi_rddata_crc_w0</text>
  <text x="604" y="550" font-size="7" font-family="JetBrains Mono, DejaVu Sans Mono, monospace" text-anchor="end" fill="#777777">DATA/8</text>
  <line x1="360" y1="536" x2="610" y2="536" stroke="#aaaaaa" stroke-width="1.0"/>
  <line x1="365" y1="566" x2="377" y2="566" stroke="#2a8f86" stroke-width="1.0" marker-end="url(#arw)"/>
  <text x="382" y="570" font-size="8" font-family="JetBrains Mono, DejaVu Sans Mono, monospace" text-anchor="start" fill="#000000">dfi_init_start</text>
  <text x="604" y="570" font-size="7" font-family="JetBrains Mono, DejaVu Sans Mono, monospace" text-anchor="end" fill="#777777">1</text>
  <line x1="360" y1="556" x2="610" y2="556" stroke="#aaaaaa" stroke-width="1.0"/>
  <line x1="377" y1="586" x2="365" y2="586" stroke="#b0602a" stroke-width="1.0" marker-end="url(#arw)"/>
  <text x="382" y="590" font-size="8" font-family="JetBrains Mono, DejaVu Sans Mono, monospace" text-anchor="start" fill="#000000">dfi_init_complete</text>
  <text x="604" y="590" font-size="7" font-family="JetBrains Mono, DejaVu Sans Mono, monospace" text-anchor="end" fill="#777777">1</text>
  <line x1="360" y1="576" x2="610" y2="576" stroke="#aaaaaa" stroke-width="1.0"/>
  <line x1="365" y1="606" x2="377" y2="606" stroke="#2a8f86" stroke-width="1.0" marker-end="url(#arw)"/>
  <text x="382" y="610" font-size="8" font-family="JetBrains Mono, DejaVu Sans Mono, monospace" text-anchor="start" fill="#000000">dfi_cmd_freq_ratio</text>
  <text x="604" y="610" font-size="7" font-family="JetBrains Mono, DejaVu Sans Mono, monospace" text-anchor="end" fill="#777777">2</text>
  <line x1="360" y1="596" x2="610" y2="596" stroke="#aaaaaa" stroke-width="1.0"/>
  <line x1="365" y1="626" x2="377" y2="626" stroke="#2a8f86" stroke-width="1.0" marker-end="url(#arw)"/>
  <text x="382" y="630" font-size="8" font-family="JetBrains Mono, DejaVu Sans Mono, monospace" text-anchor="start" fill="#000000">dfi_data_freq_ratio</text>
  <text x="604" y="630" font-size="7" font-family="JetBrains Mono, DejaVu Sans Mono, monospace" text-anchor="end" fill="#777777">2</text>
  <line x1="360" y1="616" x2="610" y2="616" stroke="#aaaaaa" stroke-width="1.0"/>
  <line x1="365" y1="646" x2="377" y2="646" stroke="#2a8f86" stroke-width="1.0" marker-end="url(#arw)"/>
  <text x="382" y="650" font-size="8" font-family="JetBrains Mono, DejaVu Sans Mono, monospace" text-anchor="start" fill="#000000">dfi_freq_fsp</text>
  <text x="604" y="650" font-size="7" font-family="JetBrains Mono, DejaVu Sans Mono, monospace" text-anchor="end" fill="#777777">1-2</text>
  <line x1="360" y1="636" x2="610" y2="636" stroke="#aaaaaa" stroke-width="1.0"/>
  <line x1="365" y1="666" x2="377" y2="666" stroke="#2a8f86" stroke-width="1.0" marker-end="url(#arw)"/>
  <text x="382" y="670" font-size="8" font-family="JetBrains Mono, DejaVu Sans Mono, monospace" text-anchor="start" fill="#000000">dfi_frequency</text>
  <text x="604" y="670" font-size="7" font-family="JetBrains Mono, DejaVu Sans Mono, monospace" text-anchor="end" fill="#777777">W</text>
  <line x1="360" y1="656" x2="610" y2="656" stroke="#aaaaaa" stroke-width="1.0"/>
  <line x1="365" y1="686" x2="377" y2="686" stroke="#2a8f86" stroke-width="1.0" marker-end="url(#arw)"/>
  <text x="382" y="690" font-size="8" font-family="JetBrains Mono, DejaVu Sans Mono, monospace" text-anchor="start" fill="#000000">dfi_ctrlupd_req</text>
  <text x="604" y="690" font-size="7" font-family="JetBrains Mono, DejaVu Sans Mono, monospace" text-anchor="end" fill="#777777">1</text>
  <line x1="360" y1="676" x2="610" y2="676" stroke="#aaaaaa" stroke-width="1.0"/>
  <line x1="377" y1="706" x2="365" y2="706" stroke="#b0602a" stroke-width="1.0" marker-end="url(#arw)"/>
  <text x="382" y="710" font-size="8" font-family="JetBrains Mono, DejaVu Sans Mono, monospace" text-anchor="start" fill="#000000">dfi_ctrlupd_ack</text>
  <text x="604" y="710" font-size="7" font-family="JetBrains Mono, DejaVu Sans Mono, monospace" text-anchor="end" fill="#777777">1</text>
  <line x1="360" y1="696" x2="610" y2="696" stroke="#aaaaaa" stroke-width="1.0"/>
  <line x1="377" y1="726" x2="365" y2="726" stroke="#b0602a" stroke-width="1.0" marker-end="url(#arw)"/>
  <text x="382" y="730" font-size="8" font-family="JetBrains Mono, DejaVu Sans Mono, monospace" text-anchor="start" fill="#000000">dfi_phyupd_req</text>
  <text x="604" y="730" font-size="7" font-family="JetBrains Mono, DejaVu Sans Mono, monospace" text-anchor="end" fill="#777777">1</text>
  <line x1="360" y1="716" x2="610" y2="716" stroke="#aaaaaa" stroke-width="1.0"/>
  <line x1="365" y1="746" x2="377" y2="746" stroke="#2a8f86" stroke-width="1.0" marker-end="url(#arw)"/>
  <text x="382" y="750" font-size="8" font-family="JetBrains Mono, DejaVu Sans Mono, monospace" text-anchor="start" fill="#000000">dfi_phyupd_ack</text>
  <text x="604" y="750" font-size="7" font-family="JetBrains Mono, DejaVu Sans Mono, monospace" text-anchor="end" fill="#777777">1</text>
  <line x1="360" y1="736" x2="610" y2="736" stroke="#aaaaaa" stroke-width="1.0"/>
  <line x1="377" y1="766" x2="365" y2="766" stroke="#b0602a" stroke-width="1.0" marker-end="url(#arw)"/>
  <text x="382" y="770" font-size="8" font-family="JetBrains Mono, DejaVu Sans Mono, monospace" text-anchor="start" fill="#000000">dfi_phyupd_type</text>
  <text x="604" y="770" font-size="7" font-family="JetBrains Mono, DejaVu Sans Mono, monospace" text-anchor="end" fill="#777777">2</text>
  <line x1="360" y1="756" x2="610" y2="756" stroke="#aaaaaa" stroke-width="1.0"/>
  <line x1="377" y1="786" x2="365" y2="786" stroke="#b0602a" stroke-width="1.0" marker-end="url(#arw)"/>
  <text x="382" y="790" font-size="8" font-family="JetBrains Mono, DejaVu Sans Mono, monospace" text-anchor="start" fill="#000000">dfi_error</text>
  <text x="604" y="790" font-size="7" font-family="JetBrains Mono, DejaVu Sans Mono, monospace" text-anchor="end" fill="#777777">1</text>
  <line x1="360" y1="776" x2="610" y2="776" stroke="#aaaaaa" stroke-width="1.0"/>
  <line x1="377" y1="806" x2="365" y2="806" stroke="#b0602a" stroke-width="1.0" marker-end="url(#arw)"/>
  <text x="382" y="810" font-size="8" font-family="JetBrains Mono, DejaVu Sans Mono, monospace" text-anchor="start" fill="#000000">dfi_error_info</text>
  <text x="604" y="810" font-size="7" font-family="JetBrains Mono, DejaVu Sans Mono, monospace" text-anchor="end" fill="#777777">W*4</text>
  <line x1="360" y1="796" x2="610" y2="796" stroke="#aaaaaa" stroke-width="1.0"/>
  <line x1="365" y1="826" x2="377" y2="826" stroke="#2a8f86" stroke-width="1.0" marker-end="url(#arw)"/>
  <text x="382" y="830" font-size="8" font-family="JetBrains Mono, DejaVu Sans Mono, monospace" text-anchor="start" fill="#000000">dfi_lp_ctrl_req</text>
  <text x="604" y="830" font-size="7" font-family="JetBrains Mono, DejaVu Sans Mono, monospace" text-anchor="end" fill="#777777">1</text>
  <line x1="360" y1="816" x2="610" y2="816" stroke="#aaaaaa" stroke-width="1.0"/>
  <line x1="377" y1="846" x2="365" y2="846" stroke="#b0602a" stroke-width="1.0" marker-end="url(#arw)"/>
  <text x="382" y="850" font-size="8" font-family="JetBrains Mono, DejaVu Sans Mono, monospace" text-anchor="start" fill="#000000">dfi_lp_ctrl_ack</text>
  <text x="604" y="850" font-size="7" font-family="JetBrains Mono, DejaVu Sans Mono, monospace" text-anchor="end" fill="#777777">1</text>
  <line x1="360" y1="836" x2="610" y2="836" stroke="#aaaaaa" stroke-width="1.0"/>
  <line x1="365" y1="866" x2="377" y2="866" stroke="#2a8f86" stroke-width="1.0" marker-end="url(#arw)"/>
  <text x="382" y="870" font-size="8" font-family="JetBrains Mono, DejaVu Sans Mono, monospace" text-anchor="start" fill="#000000">dfi_lp_ctrl_wakeup</text>
  <text x="604" y="870" font-size="7" font-family="JetBrains Mono, DejaVu Sans Mono, monospace" text-anchor="end" fill="#777777">1</text>
  <line x1="360" y1="856" x2="610" y2="856" stroke="#aaaaaa" stroke-width="1.0"/>
  <line x1="365" y1="886" x2="377" y2="886" stroke="#2a8f86" stroke-width="1.0" marker-end="url(#arw)"/>
  <text x="382" y="890" font-size="8" font-family="JetBrains Mono, DejaVu Sans Mono, monospace" text-anchor="start" fill="#000000">dfi_lp_data_req</text>
  <text x="604" y="890" font-size="7" font-family="JetBrains Mono, DejaVu Sans Mono, monospace" text-anchor="end" fill="#777777">1</text>
  <line x1="360" y1="876" x2="610" y2="876" stroke="#aaaaaa" stroke-width="1.0"/>
  <line x1="377" y1="906" x2="365" y2="906" stroke="#b0602a" stroke-width="1.0" marker-end="url(#arw)"/>
  <text x="382" y="910" font-size="8" font-family="JetBrains Mono, DejaVu Sans Mono, monospace" text-anchor="start" fill="#000000">dfi_lp_data_ack</text>
  <text x="604" y="910" font-size="7" font-family="JetBrains Mono, DejaVu Sans Mono, monospace" text-anchor="end" fill="#777777">1</text>
  <line x1="360" y1="896" x2="610" y2="896" stroke="#aaaaaa" stroke-width="1.0"/>
  <line x1="365" y1="926" x2="377" y2="926" stroke="#2a8f86" stroke-width="1.0" marker-end="url(#arw)"/>
  <text x="382" y="930" font-size="8" font-family="JetBrains Mono, DejaVu Sans Mono, monospace" text-anchor="start" fill="#000000">dfi_lp_data_wakeup</text>
  <text x="604" y="930" font-size="7" font-family="JetBrains Mono, DejaVu Sans Mono, monospace" text-anchor="end" fill="#777777">1</text>
  <line x1="360" y1="916" x2="610" y2="916" stroke="#aaaaaa" stroke-width="1.0"/>
  <path d="M616 99 C626 99 626 196.0 634 196.0 C626 196.0 626 293 616 293" fill="none" stroke="#000000" stroke-width="1.0"/>
  <text x="642" y="200.0" font-size="10" font-family="Inter, DejaVu Sans, sans-serif" text-anchor="start" fill="#000000" font-weight="bold">COMMAND  (cmd-clk)</text>
  <path d="M616 299 C626 299 626 356.0 634 356.0 C626 356.0 626 413 616 413" fill="none" stroke="#000000" stroke-width="1.0"/>
  <text x="642" y="360.0" font-size="10" font-family="Inter, DejaVu Sans, sans-serif" text-anchor="start" fill="#000000" font-weight="bold">WRITE DATA  (data-clk)</text>
  <path d="M616 419 C626 419 626 486.0 634 486.0 C626 486.0 626 553 616 553" fill="none" stroke="#000000" stroke-width="1.0"/>
  <text x="642" y="490.0" font-size="10" font-family="Inter, DejaVu Sans, sans-serif" text-anchor="start" fill="#000000" font-weight="bold">READ DATA  (data-clk)</text>
  <path d="M616 559 C626 559 626 666.0 634 666.0 C626 666.0 626 773 616 773" fill="none" stroke="#000000" stroke-width="1.0"/>
  <text x="642" y="670.0" font-size="10" font-family="Inter, DejaVu Sans, sans-serif" text-anchor="start" fill="#000000" font-weight="bold">STATUS / UPDATE  (ctrl-clk)</text>
  <path d="M616 779 C626 779 626 856.0 634 856.0 C626 856.0 626 933 616 933" fill="none" stroke="#000000" stroke-width="1.0"/>
  <text x="642" y="860.0" font-size="10" font-family="Inter, DejaVu Sans, sans-serif" text-anchor="start" fill="#000000" font-weight="bold">ERROR / LOW-POWER  (ctrl-clk)</text>
  <text x="40" y="986" font-size="11" font-family="Inter, DejaVu Sans, sans-serif" text-anchor="start" fill="#777777">The PHY presents ONE DFI interface; all ports live on it. Braces group by interface type / reference clock domain: command (cmd-clk), write &amp; read data (data-clk), status/update and error/low-power (ctrl-clk). Phase signals (_pN) are x GEAR copies; only _p0 drawn.</text>
</svg>
